<?xml version="1.0" encoding="utf-8"?>
<!-- Uploaded to: SVG Repo, www.svgrepo.com, Generator: SVG Repo Mixer Tools -->
<svg fill="#000000" width="800px" height="800px" viewBox="-5.5 0 32 32" version="1.1" xmlns="http://www.w3.org/2000/svg">
<title>sun</title>
<path d="M10.68 21.64c-3.12 0-5.64-2.52-5.64-5.64s2.52-5.64 5.64-5.64 5.64 2.52 5.64 5.64-2.52 5.64-5.64 5.64zM10.68 12.040c-2.2 0-3.96 1.76-3.96 3.96s1.76 3.96 3.96 3.96 3.96-1.76 3.96-3.96-1.76-3.96-3.96-3.96zM10.68 9.040c-0.48 0-0.84-0.36-0.84-0.84v-2.040c0-0.48 0.36-0.84 0.84-0.84s0.84 0.36 0.84 0.84v2.040c0 0.48-0.36 0.84-0.84 0.84zM16.2 11.32c-0.2 0-0.44-0.080-0.6-0.24-0.32-0.32-0.32-0.84 0-1.2l1.44-1.44c0.32-0.32 0.84-0.32 1.2 0 0.32 0.32 0.32 0.84 0 1.2l-1.44 1.44c-0.2 0.16-0.4 0.24-0.6 0.24zM18.48 16.84c-0.48 0-0.84-0.36-0.84-0.84s0.36-0.84 0.84-0.84h2.040c0.48 0 0.84 0.36 0.84 0.84s-0.36 0.84-0.84 0.84h-2.040zM17.64 23.8c-0.2 0-0.44-0.080-0.6-0.24l-1.44-1.48c-0.32-0.32-0.32-0.84 0-1.2 0.32-0.32 0.84-0.32 1.2 0l1.44 1.44c0.32 0.32 0.32 0.84 0 1.2-0.16 0.2-0.4 0.28-0.6 0.28zM10.68 26.68c-0.48 0-0.84-0.36-0.84-0.84v-2.040c0-0.48 0.36-0.84 0.84-0.84s0.84 0.36 0.84 0.84v2.040c0 0.48-0.36 0.84-0.84 0.84zM3.72 23.8c-0.2 0-0.44-0.080-0.6-0.24-0.32-0.32-0.32-0.84 0-1.2l1.44-1.44c0.32-0.32 0.84-0.32 1.2 0s0.32 0.84 0 1.2l-1.44 1.44c-0.16 0.16-0.4 0.24-0.6 0.24zM0.84 16.84c-0.48 0-0.84-0.36-0.84-0.84s0.36-0.84 0.84-0.84h2.040c0.48 0 0.84 0.36 0.84 0.84s-0.36 0.84-0.84 0.84h-2.040zM5.16 11.32c-0.2 0-0.44-0.080-0.6-0.24l-1.44-1.44c-0.32-0.32-0.32-0.84 0-1.2 0.32-0.32 0.84-0.32 1.2 0l1.44 1.44c0.32 0.32 0.32 0.84 0 1.2-0.16 0.16-0.36 0.24-0.6 0.24z"></path>
</svg>